<svg width="48" height="48" viewBox="0 0 48 48" fill="none" xmlns="http://www.w3.org/2000/svg">
<path fill-rule="evenodd" clip-rule="evenodd" d="M4 20C4 11.164 11.164 4 20 4C28.836 4 36 11.164 36 20C36 28.836 28.836 36 20 36C11.164 36 4 28.836 4 20ZM21.4453 8.20312C21.4453 7.64913 20.9954 7.19922 20.4414 7.19922H20.4297C19.8757 7.19922 19.4258 7.64913 19.4258 8.20312V10.0586C18.7478 10.1446 14.9531 10.8575 14.9531 15.4375C14.9531 19.1154 17.049 20.1703 18.9335 21.1188C20.4728 21.8935 21.8711 22.5973 21.8711 24.6016C21.8711 26.8336 20.4268 26.8867 20.1328 26.8867C20.1241 26.8867 20.1139 26.8869 20.1022 26.887C19.804 26.8913 18.563 26.909 18.2031 24.8672C18.0731 24.1252 17.3771 23.6133 16.6211 23.6133H16.0977C15.1077 23.6133 14.3022 24.5027 14.4922 25.4727C15.2656 29.4162 18.4586 29.8485 19.1064 29.9362C19.1203 29.9381 19.133 29.9398 19.1445 29.9414V31.6016C19.1445 32.1556 19.5944 32.6016 20.1484 32.6016C20.7024 32.6016 21.1484 32.1556 21.1484 31.6016V29.9414C21.8244 29.8574 25.6484 29.2263 25.6484 24.5703C25.6484 20.9763 23.4742 19.7831 21.5642 18.7349C20.0678 17.9136 18.7335 17.1814 18.7344 15.4531C18.7344 13.1991 19.9742 13.1289 20.2422 13.1289C20.6342 13.1289 21.4594 13.4098 21.7734 14.9258C21.9354 15.7138 22.571 16.3086 23.375 16.3086H23.8906C24.9386 16.3086 25.7007 15.3209 25.4727 14.2969C24.7027 10.8309 21.9933 10.2193 21.4453 10.1133V8.20312ZM40 20C40 19.048 39.9092 18.1172 39.7812 17.1992C42.3913 20.0472 44 23.832 44 28C44 36.836 36.836 44 28 44C23.832 44 20.0472 42.3913 17.1992 39.7812C18.1172 39.9092 19.048 40 20 40C31.046 40 40 31.046 40 20Z" fill="#F4ED1F"/>
</svg>
