<svg width="40" height="40" viewBox="0 0 40 40" fill="none" xmlns="http://www.w3.org/2000/svg">
<rect width="40" height="40" rx="20" fill="#F4ED1F"/>
<path fill-rule="evenodd" clip-rule="evenodd" d="M16 15C16 12.8027 17.8027 11 20 11C22.1973 11 24 12.8027 24 15C24 17.1973 22.1973 19 20 19C17.8027 19 16 17.1973 16 15ZM22 15C22 13.8836 21.1164 13 20 13C18.8836 13 18 13.8836 18 15C18 16.1164 18.8836 17 20 17C21.1164 17 22 16.1164 22 15ZM14.4492 23.0957C16.1872 22.4098 18.255 22 20 22C21.745 22 23.8128 22.4098 25.5508 23.0957C26.4198 23.4387 27.2053 23.846 27.834 24.3691C28.4627 24.8922 29 25.5994 29 26.5V28V29H11V26.5C11 25.5994 11.5373 24.8922 12.166 24.3691C12.7947 23.846 13.5802 23.4387 14.4492 23.0957ZM24.8184 24.9551C23.3461 24.374 21.414 24 20 24C18.586 24 16.6539 24.374 15.1816 24.9551C14.4455 25.2456 13.823 25.592 13.4453 25.9062C13.0676 26.2205 13 26.4346 13 26.5V27H27V26.5C27 26.4346 26.9324 26.2205 26.5547 25.9062C26.177 25.592 25.5545 25.2456 24.8184 24.9551Z" fill="#202020"/>
</svg>
