<svg width="48" height="48" viewBox="0 0 48 48" fill="none" xmlns="http://www.w3.org/2000/svg">
<path fill-rule="evenodd" clip-rule="evenodd" d="M24.0001 10.18C24.0001 10.18 27.0301 6.23404 32.5121 6.01004C36.1881 5.86004 39.5582 7.69004 41.7761 10.624C48.9659 20.1235 36.7988 31.1246 32.3029 35.1897C31.9676 35.4929 31.6749 35.7575 31.4361 35.98C29.3781 37.898 26.8382 40.176 25.3221 41.526C24.5641 42.202 23.4341 42.202 22.6761 41.526C21.1601 40.176 18.6201 37.898 16.5621 35.98C16.3236 35.7577 16.0312 35.4933 15.6962 35.1904C11.2011 31.1258 -0.966131 20.124 6.22215 10.624C8.44215 7.69004 11.8121 5.86004 15.4881 6.01004C20.9701 6.23404 24.0001 10.18 24.0001 10.18Z" fill="#F4ED1F"/>
</svg>
