<svg width="40" height="40" viewBox="0 0 40 40" fill="none" xmlns="http://www.w3.org/2000/svg">
<rect width="40" height="40" rx="20" fill="#00AFC7"/>
<path fill-rule="evenodd" clip-rule="evenodd" d="M24 12C24 9.791 25.791 8 28 8C30.209 8 32 9.791 32 12C32 14.857 28 19 28 19C28 19 24 14.857 24 12ZM10 20C10 14.486 14.486 10 20 10C20.777 10 21.5308 10.0986 22.2578 10.2676C22.0908 10.8166 22 11.397 22 12H20C16.977 12 14.3405 13.687 12.9805 16.168L15 18.1855V17C15 16.447 15.448 16 16 16H17V14.0312C17 13.4823 17.4432 13.0353 17.9922 13.0312L22.1035 13C22.1875 13.445 22.3145 13.8939 22.4805 14.3379C22.1175 14.7429 21.5986 15.0038 21.0156 15.0078L19 15.0234V17C19 17.553 18.552 18 18 18H17V20H23C23.552 20 24 20.447 24 21V23H25C25.806 23 26.4985 23.4819 26.8145 24.1699C27.1695 23.5919 27.4484 22.9657 27.6504 22.3047L29.4395 20.3887C29.5575 20.2677 29.7532 20.059 29.9902 19.793C29.9907 19.8253 29.9929 19.8574 29.995 19.8895C29.9975 19.9261 30 19.9628 30 20C30 25.514 25.514 30 20 30C14.486 30 10 25.514 10 20ZM29.4297 12C29.4297 11.211 28.789 10.5703 28 10.5703C27.211 10.5703 26.5703 11.211 26.5703 12C26.5703 12.789 27.211 13.4297 28 13.4297C28.789 13.4297 29.4297 12.789 29.4297 12ZM17 23.0137L12.207 18.2207C12.076 18.7947 12 19.388 12 20C12 24.072 15.06 27.4366 19 27.9316V26C17.897 26 17 25.103 17 24V23.0137ZM23 25C22.448 25 22 24.553 22 24V22H18.7793C18.9123 22.174 19 22.3776 19 22.5996V24H20C20.552 24 21 24.447 21 25V27.9297C22.502 27.7417 23.875 27.1384 25 26.2344V25H23Z" fill="#202020"/>
</svg>
